<svg width="19" height="17" viewBox="0 0 19 17" fill="none" xmlns="http://www.w3.org/2000/svg">
<path d="M14.1964 6.20002C14.1964 5.1259 13.7223 4.09576 12.8784 3.33624C12.0345 2.57672 10.8899 2.15002 9.69641 2.15002C8.50294 2.15002 7.35834 2.57672 6.51443 3.33624C5.67052 4.09576 5.19641 5.1259 5.19641 6.20002C5.19641 10.925 2.94641 12.275 2.94641 12.275H16.4464C16.4464 12.275 14.1964 10.925 14.1964 6.20002Z" fill="white" stroke="white" stroke-width="2" stroke-linecap="round" stroke-linejoin="round"/>
<path d="M12.6964 14.9751C12.3915 15.2831 11.9539 15.5387 11.4274 15.7164C10.9009 15.8941 10.304 15.9876 9.69641 15.9876C9.08882 15.9876 8.49189 15.8941 7.96538 15.7164C7.43888 15.5387 7.00128 15.2831 6.69641 14.9751" stroke="white" stroke-width="1.5" stroke-linecap="round" stroke-linejoin="round"/>
</svg>
