<svg width="48" height="48" viewBox="0 0 48 48" fill="none" xmlns="http://www.w3.org/2000/svg">
<path d="M44.0002 17C44.0002 23.52 39.2002 28.9 32.9602 29.84V29.72C32.3402 21.96 26.0402 15.66 18.2202 15.04H18.1602C19.1002 8.8 24.4802 4 31.0002 4C38.1802 4 44.0002 9.82 44.0002 17Z" fill="#00C853"/>
<path d="M29.96 29.96C29.46 23.62 24.38 18.54 18.04 18.04C17.7 18.02 17.34 18 17 18C9.82 18 4 23.82 4 31C4 38.18 9.82 44 17 44C24.18 44 30 38.18 30 31C30 30.66 29.98 30.3 29.96 29.96ZM18.76 32.76L17 36L15.24 32.76L12 31L15.24 29.24L17 26L18.76 29.24L22 31L18.76 32.76Z" fill="#00C853"/>
</svg>
