<svg width="48" height="48" viewBox="0 0 48 48" fill="none" xmlns="http://www.w3.org/2000/svg">
<path d="M44 42.5C44 43.32 43.32 44 42.5 44H5.5C4.68 44 4 43.32 4 42.5C4 41.68 4.68 41 5.5 41H42.5C43.32 41 44 41.68 44 42.5Z" fill="#00C853"/>
<path d="M30.7799 9.04002L9.29988 30.52C8.47988 31.34 7.15988 31.34 6.35988 30.52H6.33988C3.55988 27.72 3.55988 23.2 6.33988 20.42L20.6399 6.12002C23.4399 3.32002 27.9599 3.32002 30.7599 6.12002C31.5799 6.90002 31.5799 8.24002 30.7799 9.04002Z" fill="#00C853"/>
<path d="M41.6399 16.9799L35.5399 10.8799C34.7199 10.0599 33.3999 10.0599 32.5999 10.8799L11.1199 32.3599C10.2999 33.1599 10.2999 34.4799 11.1199 35.2999L17.2199 41.4199C20.0199 44.1999 24.5399 44.1999 27.3399 41.4199L41.6199 27.1199C44.4599 24.3199 44.4599 19.7799 41.6399 16.9799ZM25.5199 35.0399L23.0999 37.4799C22.5999 37.9799 21.7799 37.9799 21.2599 37.4799C20.7599 36.9799 20.7599 36.1599 21.2599 35.6399L23.6999 33.1999C24.1799 32.7199 25.0199 32.7199 25.5199 33.1999C26.0199 33.6999 26.0199 34.5599 25.5199 35.0399ZM33.4599 27.0999L28.5799 31.9999C28.0799 32.4799 27.2599 32.4799 26.7399 31.9999C26.2399 31.4999 26.2399 30.6799 26.7399 30.1599L31.6399 25.2599C32.1199 24.7799 32.9599 24.7799 33.4599 25.2599C33.9599 25.7799 33.9599 26.5999 33.4599 27.0999Z" fill="#00C853"/>
</svg>
