<svg width="49" height="48" viewBox="0 0 49 48" fill="none" xmlns="http://www.w3.org/2000/svg">
<path d="M44.3402 33.4999C43.6802 38.8199 39.3202 43.1799 34.0002 43.8399C30.7802 44.2399 27.7802 43.3599 25.4402 41.6399C24.1002 40.6599 24.4202 38.5799 26.0202 38.0999C32.0402 36.2799 36.7802 31.5199 38.6202 25.4999C39.1002 23.9199 41.1802 23.5999 42.1602 24.9199C43.8602 27.2799 44.7402 30.2799 44.3402 33.4999Z" fill="#00C853"/>
<path d="M20.48 4C11.66 4 4.5 11.16 4.5 19.98C4.5 28.8 11.66 35.96 20.48 35.96C29.3 35.96 36.46 28.8 36.46 19.98C36.44 11.16 29.3 4 20.48 4ZM18.6 17.74L23.42 19.42C25.16 20.04 26 21.26 26 23.14C26 25.3 24.28 27.08 22.18 27.08H22V27.18C22 28 21.32 28.68 20.5 28.68C19.68 28.68 19 28 19 27.18V27.06C16.78 26.96 15 25.1 15 22.78C15 21.96 15.68 21.28 16.5 21.28C17.32 21.28 18 21.96 18 22.78C18 23.5 18.52 24.08 19.16 24.08H22.16C22.62 24.08 22.98 23.66 22.98 23.14C22.98 22.44 22.86 22.4 22.4 22.24L17.58 20.56C15.86 19.96 15 18.74 15 16.84C15 14.68 16.72 12.9 18.82 12.9H19V12.82C19 12 19.68 11.32 20.5 11.32C21.32 11.32 22 12 22 12.82V12.94C24.22 13.04 26 14.9 26 17.22C26 18.04 25.32 18.72 24.5 18.72C23.68 18.72 23 18.04 23 17.22C23 16.5 22.48 15.92 21.84 15.92H18.84C18.38 15.92 18.02 16.34 18.02 16.86C18 17.54 18.12 17.58 18.6 17.74Z" fill="#00C853"/>
</svg>
