<svg width="17" height="19" viewBox="0 0 17 19" fill="none" xmlns="http://www.w3.org/2000/svg">
<path fill-rule="evenodd" clip-rule="evenodd" d="M0.5 0V18H5.41C4.23612 16.689 3.56058 15.0071 3.50157 13.2484C3.44256 11.4896 4.00384 9.76616 5.08721 8.37947C6.17058 6.99279 7.70704 6.03119 9.42779 5.66293C11.1485 5.29466 12.944 5.54318 14.5 6.365V4L10.5 0H0.5ZM16.5 13C16.5 14.4587 15.9205 15.8576 14.8891 16.8891C13.8576 17.9205 12.4587 18.5 11 18.5C9.54131 18.5 8.14236 17.9205 7.11091 16.8891C6.07946 15.8576 5.5 14.4587 5.5 13C5.5 11.5413 6.07946 10.1424 7.11091 9.11091C8.14236 8.07946 9.54131 7.5 11 7.5C12.4587 7.5 13.8576 8.07946 14.8891 9.11091C15.9205 10.1424 16.5 11.5413 16.5 13ZM11.71 10.125H9.71V14.125L12.741 15.875L13.741 14.143L11.71 12.97V10.125Z" fill="white"/>
</svg>
