<svg width="18" height="18" viewBox="0 0 18 18" fill="none" xmlns="http://www.w3.org/2000/svg">
<path d="M17.9993 9.7533C16.6493 10.6846 15.0155 11.1133 13.3821 10.9646C11.7488 10.816 10.2192 10.0995 9.05949 8.93978C7.89977 7.78005 7.18327 6.25048 7.03464 4.61714C6.886 2.98379 7.31463 1.35001 8.24597 0C6.53454 0.146645 4.90061 0.779102 3.53646 1.82294C2.17232 2.86678 1.13472 4.27857 0.545791 5.89215C-0.0431411 7.50573 -0.158905 9.25397 0.212123 10.9311C0.583151 12.6083 1.42553 14.1445 2.64013 15.3591C3.85473 16.5737 5.391 17.4161 7.06815 17.7871C8.7453 18.1582 10.4935 18.0424 12.1071 17.4535C13.7207 16.8645 15.1325 15.827 16.1763 14.4628C17.2202 13.0987 17.8526 11.4647 17.9993 9.7533Z" fill="white"/>
</svg>
