<svg width="53" height="53" viewBox="0 0 53 53" fill="none" xmlns="http://www.w3.org/2000/svg">
<path d="M37.0691 19.8587H28.1327V33.6495C28.1327 34.5541 27.3825 35.3043 26.4778 35.3043C25.5731 35.3043 24.8229 34.5541 24.8229 33.6495V19.8587H15.8865C8.82564 19.8587 4.4126 24.2717 4.4126 31.3326V37.0475C4.4126 44.1304 8.82564 48.5435 15.8865 48.5435H37.0471C44.1079 48.5435 48.521 44.1304 48.521 37.0696V31.3326C48.543 24.2717 44.13 19.8587 37.0691 19.8587Z" fill="white"/>
<path d="M28.1331 10.0618L32.7006 14.6293C33.0316 14.9602 33.4508 15.1147 33.8701 15.1147C34.2893 15.1147 34.7086 14.9602 35.0395 14.6293C35.6794 13.9894 35.6794 12.9302 35.0395 12.2903L27.6477 4.89849C27.0078 4.2586 25.9487 4.2586 25.3088 4.89849L17.9169 12.2903C17.277 12.9302 17.277 13.9894 17.9169 14.6293C18.5568 15.2691 19.616 15.2691 20.2558 14.6293L24.8233 10.0618V19.8587H28.1331V10.0618Z" fill="white"/>
</svg>
