<svg width="42" height="42" viewBox="0 0 42 42" fill="none" xmlns="http://www.w3.org/2000/svg">
<path d="M29.4 15.75H22.3125V23.52L25.935 19.8975C26.1975 19.635 26.53 19.5125 26.8625 19.5125C27.195 19.5125 27.5275 19.635 27.79 19.8975C28.2975 20.405 28.2975 21.245 27.79 21.7525L21.9275 27.615C21.42 28.1225 20.58 28.1225 20.0725 27.615L14.21 21.7525C13.7025 21.245 13.7025 20.405 14.21 19.8975C14.7175 19.39 15.5575 19.39 16.065 19.8975L19.6875 23.52V15.75H12.6C7 15.75 3.5 19.25 3.5 24.85V29.3825C3.5 35 7 38.5 12.6 38.5H29.3825C34.9825 38.5 38.4825 35 38.4825 29.4V24.85C38.5 19.25 35 15.75 29.4 15.75Z" fill="white"/>
<path d="M22.3125 4.8125C22.3125 4.095 21.7175 3.5 21 3.5C20.2825 3.5 19.6875 4.095 19.6875 4.8125V15.75H22.3125V4.8125Z" fill="white"/>
</svg>
