<svg width="40" height="40" viewBox="0 0 40 40" fill="none" xmlns="http://www.w3.org/2000/svg">
<path d="M38.0137 11.1306C37.7987 10.3383 37.3785 9.61565 36.7949 9.0347C36.2113 8.45376 35.4848 8.03475 34.6875 7.81939C31.7312 7.01314 19.9043 7.00001 19.9043 7.00001C19.9043 7.00001 8.07919 6.98689 5.12103 7.75751C4.32425 7.98279 3.59914 8.40772 3.01533 8.99152C2.43153 9.57531 2.00862 10.2984 1.78721 11.0913C1.00755 14.0275 1 20.1175 1 20.1175C1 20.1175 0.992452 26.2375 1.76644 29.1438C2.20063 30.7506 3.47489 32.02 5.0946 32.4531C8.08107 33.2594 19.8759 33.2725 19.8759 33.2725C19.8759 33.2725 31.7029 33.2856 34.6592 32.5169C35.4567 32.3019 36.184 31.8839 36.769 31.3041C37.3541 30.7243 37.7766 30.003 37.9949 29.2113C38.7764 26.2769 38.7821 20.1888 38.7821 20.1888C38.7821 20.1888 38.8198 14.0669 38.0137 11.1306ZM16.1211 25.7594L16.1306 14.5094L25.9603 20.1438L16.1211 25.7594Z" fill="#00C853"/>
</svg>
