<svg width="40" height="40" viewBox="0 0 40 40" fill="none" xmlns="http://www.w3.org/2000/svg">
<path d="M33.5887 13.63C33.6105 13.9217 33.6105 14.2117 33.6105 14.5017C33.6105 23.3767 26.8094 33.6033 14.3803 33.6033C10.551 33.6033 6.9936 32.5017 4 30.5883C4.54368 30.65 5.06723 30.6717 5.63272 30.6717C8.67497 30.679 11.6311 29.6686 14.0245 27.8033C12.614 27.778 11.2467 27.3158 10.1135 26.4812C8.98022 25.6467 8.13766 24.4815 7.70341 23.1483C8.12124 23.21 8.54074 23.2517 8.98039 23.2517C9.58616 23.2517 10.1953 23.1683 10.7608 23.0233C9.23001 22.7164 7.85355 21.8922 6.86543 20.6911C5.87732 19.49 5.33855 17.9861 5.34074 16.435V16.3517C6.24185 16.85 7.28726 17.1617 8.39476 17.2033C7.46696 16.591 6.70619 15.76 6.18033 14.7847C5.65447 13.8093 5.37986 12.7198 5.38102 11.6133C5.38102 10.3667 5.71494 9.22333 6.30058 8.22667C7.99897 10.3017 10.1173 11.9993 12.5182 13.2094C14.9192 14.4196 17.5493 15.1154 20.2383 15.2517C20.1342 14.7517 20.0705 14.2333 20.0705 13.7133C20.07 12.8316 20.2446 11.9584 20.5841 11.1437C20.9236 10.329 21.4215 9.58879 22.0492 8.96531C22.6769 8.34184 23.4222 7.84735 24.2425 7.51013C25.0627 7.17291 25.9418 6.99956 26.8296 7C28.7761 7 30.533 7.81 31.768 9.12C33.2812 8.82936 34.7323 8.2807 36.0571 7.49833C35.5527 9.04969 34.4961 10.3652 33.0853 11.1983C34.4273 11.0463 35.739 10.6958 36.9766 10.1583C36.0522 11.4968 34.9068 12.6706 33.5887 13.63Z" fill="#00C853"/>
</svg>
