<svg width="40" height="40" viewBox="0 0 40 40" fill="none" xmlns="http://www.w3.org/2000/svg">
<path d="M7.49108 13.7331C7.49108 16.0251 8.27429 17.6788 9.81717 18.6499C11.0822 19.4476 12.5482 19.5673 13.311 19.5673C13.4962 19.5673 13.6453 19.5581 13.7489 19.5519C13.7489 19.5519 13.5072 21.0922 14.675 22.614H14.6216C12.5984 22.614 6 23.0266 6 28.3315C6 33.7254 12.0601 34 13.2765 34C13.3722 34 13.4287 33.9969 13.4287 33.9969C13.4413 33.9969 13.5276 34 13.6767 34C14.4568 34 16.4737 33.9049 18.3462 33.0136C20.7758 31.863 22.0079 29.8549 22.0079 27.0536C22.0079 24.3475 20.1308 22.7367 18.7605 21.5585C17.9239 20.839 17.2004 20.2193 17.2004 19.6164C17.2004 19.0027 17.7293 18.541 18.3964 17.9565C19.4778 17.013 20.498 15.6676 20.498 13.1241C20.498 10.8889 20.2014 9.38705 18.3728 8.43438C18.5628 8.33926 19.2377 8.27023 19.5704 8.2242C20.5608 8.09227 22.0095 7.94193 22.0095 7.15187V7H14.7911C14.7189 7.00307 7.49108 7.26386 7.49108 13.7331ZM19.1435 27.5599C19.2816 29.7168 17.3934 31.3077 14.5572 31.5086C11.6771 31.7157 9.30706 30.4486 9.16894 28.2932C9.10145 27.2561 9.56761 26.2436 10.4795 25.4352C11.404 24.6175 12.6738 24.1112 14.055 24.0115C14.2182 24.0023 14.3799 23.9931 14.5415 23.9931C17.2082 23.9947 19.0132 25.5257 19.1435 27.5599ZM17.2585 12.2558C17.9663 14.6919 16.8975 17.2355 15.1929 17.7064C14.9967 17.7599 14.7939 17.7867 14.5902 17.7862C13.0301 17.7862 11.484 16.2429 10.9096 14.1151C10.5894 12.9247 10.6161 11.8784 10.9834 10.8751C11.3428 9.88563 11.9926 9.22136 12.8088 8.99585C13.0049 8.94216 13.2074 8.91455 13.413 8.91455C15.2965 8.91455 16.5082 9.67852 17.2585 12.2558ZM29.4822 17.4318V12.8295H26.3431V17.4318H21.6344V20.5H26.3431V25.1023H29.4822V20.5H34.1909V17.4318H29.4822Z" fill="#00C853"/>
</svg>
