<svg width="19" height="18" viewBox="0 0 19 18" fill="none" xmlns="http://www.w3.org/2000/svg">
<g clip-path="url(#clip0_88_1413)">
<path d="M10 18C14.9706 18 19 13.9706 19 9C19 4.02944 14.9706 0 10 0C5.02944 0 1 4.02944 1 9C1 13.9706 5.02944 18 10 18Z" fill="white" stroke="black" stroke-width="2" stroke-linecap="round" stroke-linejoin="round"/>
<path d="M1 9H19" stroke="black" stroke-width="2" stroke-linecap="round" stroke-linejoin="round"/>
<path d="M10 0C12.5013 2.46452 13.9228 5.66283 14 9C13.9228 12.3372 12.5013 15.5355 10 18C7.49872 15.5355 6.07725 12.3372 6 9C6.07725 5.66283 7.49872 2.46452 10 0Z" stroke="black" stroke-width="2" stroke-linecap="round" stroke-linejoin="round"/>
</g>
<defs>
<clipPath id="clip0_88_1413">
<rect width="18" height="18" fill="white" transform="translate(0.911987)"/>
</clipPath>
</defs>
</svg>
