<svg width="18" height="18" viewBox="0 0 18 18" fill="none" xmlns="http://www.w3.org/2000/svg">
<path d="M13.9703 5.7777C13.9703 4.59896 13.4786 3.46849 12.6034 2.635C11.7283 1.8015 10.5413 1.33325 9.30359 1.33325C8.06591 1.33325 6.87893 1.8015 6.00376 2.635C5.12859 3.46849 4.63692 4.59896 4.63692 5.7777C4.63692 10.9629 2.30359 12.4444 2.30359 12.4444H16.3036C16.3036 12.4444 13.9703 10.9629 13.9703 5.7777Z" fill="#00DA5B" stroke="#00DA5B" stroke-width="2" stroke-linecap="round" stroke-linejoin="round"/>
<path d="M13.3036 15.7777C12.9479 16.1157 12.4374 16.3962 11.8231 16.5912C11.2089 16.7862 10.5124 16.8888 9.80359 16.8888C9.09473 16.8888 8.39831 16.7862 7.78406 16.5912C7.1698 16.3962 6.65927 16.1157 6.30359 15.7777" stroke="#00DA5B" stroke-width="1.5" stroke-linecap="round" stroke-linejoin="round"/>
</svg>
