<svg width="24" height="24" viewBox="0 0 24 24" fill="none" xmlns="http://www.w3.org/2000/svg">
<path fill-rule="evenodd" clip-rule="evenodd" d="M13.5 3H10.5V6H13.5V3ZM13.5 18H10.5V21H13.5V18ZM6.697 15.182L8.818 17.303L6.697 19.425L4.575 17.303L6.697 15.182ZM19.425 6.697L17.303 4.575L15.183 6.697L17.303 8.818L19.425 6.697ZM15.5 12C15.5 12.4596 15.4095 12.9148 15.2336 13.3394C15.0577 13.764 14.7999 14.1499 14.4749 14.4749C14.1499 14.7999 13.764 15.0577 13.3394 15.2336C12.9148 15.4095 12.4596 15.5 12 15.5C11.5404 15.5 11.0852 15.4095 10.6606 15.2336C10.236 15.0577 9.85013 14.7999 9.52513 14.4749C9.20012 14.1499 8.94231 13.764 8.76642 13.3394C8.59053 12.9148 8.5 12.4596 8.5 12C8.5 11.0717 8.86875 10.1815 9.52513 9.52513C10.1815 8.86875 11.0717 8.5 12 8.5C12.9283 8.5 13.8185 8.86875 14.4749 9.52513C15.1313 10.1815 15.5 11.0717 15.5 12ZM6.697 8.818L8.818 6.697L6.697 4.575L4.575 6.697L6.697 8.818ZM6 10.5V13.5H3V10.5H6ZM21 10.5V13.5H18V10.5H21ZM19.424 17.303L17.304 19.424L15.182 17.304L17.303 15.182L19.424 17.303Z" fill="#202630"/>
</svg>
