<svg width="24" height="25" viewBox="0 0 24 25" fill="none" xmlns="http://www.w3.org/2000/svg">
<path d="M16.19 2.80176H7.81C4.17 2.80176 2 4.97176 2 8.61176V16.9918C2 19.8018 3.29 21.7318 5.56 22.4618C6.22 22.6918 6.98 22.8018 7.81 22.8018H16.19C17.02 22.8018 17.78 22.6918 18.44 22.4618C20.71 21.7318 22 19.8018 22 16.9918V8.61176C22 4.97176 19.83 2.80176 16.19 2.80176ZM20.5 16.9918C20.5 19.1318 19.66 20.4818 17.97 21.0418C17 19.1318 14.7 17.7718 12 17.7718C9.3 17.7718 7.01 19.1218 6.03 21.0418H6.02C4.35 20.5018 3.5 19.1418 3.5 17.0018V8.61176C3.5 5.79176 4.99 4.30176 7.81 4.30176H16.19C19.01 4.30176 20.5 5.79176 20.5 8.61176V16.9918Z" fill="#3E7B27"/>
<path d="M11.9999 8.80176C10.0199 8.80176 8.41992 10.4018 8.41992 12.3818C8.41992 14.3618 10.0199 15.9718 11.9999 15.9718C13.9799 15.9718 15.5799 14.3618 15.5799 12.3818C15.5799 10.4018 13.9799 8.80176 11.9999 8.80176Z" fill="white"/>
</svg>
