<svg width="24" height="25" viewBox="0 0 24 25" fill="white" xmlns="http://www.w3.org/2000/svg">
<path d="M12 12.8018C14.7614 12.8018 17 10.5632 17 7.80176C17 5.04033 14.7614 2.80176 12 2.80176C9.23858 2.80176 7 5.04033 7 7.80176C7 10.5632 9.23858 12.8018 12 12.8018Z" stroke="#292D32" stroke-width="1.5" stroke-linecap="round" stroke-linejoin="round"/>
<path d="M3.41 22.8018C3.41 18.9318 7.26 15.8018 12 15.8018C12.96 15.8018 13.89 15.9318 14.76 16.1718" stroke="#292D32" stroke-width="1.5" stroke-linecap="round" stroke-linejoin="round"/>
<path d="M22 18.8018C22 19.1218 21.96 19.4318 21.88 19.7318C21.79 20.1318 21.63 20.5218 21.42 20.8618C20.73 22.0218 19.46 22.8018 18 22.8018C16.97 22.8018 16.04 22.4117 15.34 21.7717C15.04 21.5117 14.78 21.2018 14.58 20.8618C14.21 20.2618 14 19.5518 14 18.8018C14 17.7218 14.43 16.7318 15.13 16.0118C15.86 15.2618 16.88 14.8018 18 14.8018C19.18 14.8018 20.25 15.3118 20.97 16.1318C21.61 16.8418 22 17.7818 22 18.8018Z" stroke="#292D32" stroke-width="1.5" stroke-miterlimit="10" stroke-linecap="round" stroke-linejoin="round" fill="green"/>
<path d="M19.03 17.7418L16.92 19.8517" stroke="#292D32" stroke-width="1.5" stroke-miterlimit="10" stroke-linecap="round" stroke-linejoin="round" fill="green"/>
<path d="M16.94 17.7618L19.06 19.8718" stroke="#292D32" stroke-width="1.5" stroke-miterlimit="10" stroke-linecap="round" stroke-linejoin="round" fill="green"/>
</svg>
