<svg width="17" height="15" viewBox="0 0 17 15" fill="none" xmlns="http://www.w3.org/2000/svg">
<g id="vuesax/bold/arrow-square-down">
<g id="arrow-square-down">
<path id="Vector" d="M11.7701 1.25H6.15845C3.72095 1.25 2.26782 2.60625 2.26782 4.88125V10.1125C2.26782 12.3938 3.72095 13.75 6.15845 13.75H11.7634C14.2009 13.75 15.654 12.3938 15.654 10.1188V4.88125C15.6607 2.60625 14.2076 1.25 11.7701 1.25ZM11.683 6.98125L9.31916 9.1875C9.21871 9.28125 9.09148 9.325 8.96425 9.325C8.83702 9.325 8.70979 9.28125 8.60934 9.1875L6.2455 6.98125C6.0513 6.8 6.0513 6.5 6.2455 6.31875C6.4397 6.1375 6.76113 6.1375 6.95532 6.31875L8.96425 8.19375L10.9732 6.31875C11.1674 6.1375 11.4888 6.1375 11.683 6.31875C11.8772 6.5 11.8772 6.79375 11.683 6.98125Z" fill="white"/>
</g>
</g>
</svg>
