<svg width="40" height="40" viewBox="0 0 40 40" fill="none" xmlns="http://www.w3.org/2000/svg">
<path d="M26.983 3.33333H13.0163C6.94967 3.33333 3.33301 6.95 3.33301 13.0167V26.9667C3.33301 33.05 6.94967 36.6667 13.0163 36.6667H26.9663C33.033 36.6667 36.6497 33.05 36.6497 26.9833V13.0167C36.6663 6.95 33.0497 3.33333 26.983 3.33333ZM29.9997 21.25H9.99967C9.31634 21.25 8.74967 20.6833 8.74967 20C8.74967 19.3167 9.31634 18.75 9.99967 18.75H29.9997C30.683 18.75 31.2497 19.3167 31.2497 20C31.2497 20.6833 30.683 21.25 29.9997 21.25Z" fill="#00C853"/>
</svg>
