<svg width="24" height="25" viewBox="0 0 24 25" fill="none" xmlns="http://www.w3.org/2000/svg">
<path d="M12 13.5518C8.83 13.5518 6.25 10.9718 6.25 7.80176C6.25 4.63176 8.83 2.05176 12 2.05176C15.17 2.05176 17.75 4.63176 17.75 7.80176C17.75 10.9718 15.17 13.5518 12 13.5518ZM12 3.55176C9.66 3.55176 7.75 5.46176 7.75 7.80176C7.75 10.1418 9.66 12.0518 12 12.0518C14.34 12.0518 16.25 10.1418 16.25 7.80176C16.25 5.46176 14.34 3.55176 12 3.55176Z" fill="white"/>
<path d="M3.41016 23.5518C3.00016 23.5518 2.66016 23.2118 2.66016 22.8018C2.66016 18.5318 6.85015 15.0518 12.0002 15.0518C13.0102 15.0518 14.0001 15.1818 14.9601 15.4518C15.3601 15.5618 15.5902 15.9718 15.4802 16.3718C15.3702 16.7718 14.9602 17.0018 14.5602 16.8918C13.7402 16.6618 12.8802 16.5518 12.0002 16.5518C7.68015 16.5518 4.16016 19.3518 4.16016 22.8018C4.16016 23.2118 3.82016 23.5518 3.41016 23.5518Z" fill="white"/>
<path d="M18 23.5518C16.82 23.5518 15.7 23.1118 14.83 22.3218C14.48 22.0218 14.17 21.6518 13.93 21.2418C13.49 20.5218 13.25 19.6718 13.25 18.8018C13.25 17.5518 13.73 16.3818 14.59 15.4918C15.49 14.5618 16.7 14.0518 18 14.0518C19.36 14.0518 20.65 14.6318 21.53 15.6318C22.31 16.5018 22.75 17.6218 22.75 18.8018C22.75 19.1818 22.7 19.5618 22.6 19.9218C22.5 20.3718 22.31 20.8418 22.05 21.2518C21.22 22.6718 19.66 23.5518 18 23.5518ZM18 15.5518C17.11 15.5518 16.29 15.9017 15.67 16.5317C15.08 17.1417 14.75 17.9418 14.75 18.8018C14.75 19.3918 14.91 19.9717 15.22 20.4717C15.38 20.7517 15.59 21.0017 15.83 21.2117C16.43 21.7617 17.2 22.0618 18 22.0618C19.13 22.0618 20.2 21.4618 20.78 20.4918C20.95 20.2118 21.08 19.8918 21.15 19.5818C21.22 19.3218 21.25 19.0718 21.25 18.8118C21.25 18.0118 20.95 17.2418 20.41 16.6418C19.81 15.9418 18.93 15.5518 18 15.5518Z" fill="#3E7B27"/>
<path d="M19.4998 19.5317H16.5098C16.0998 19.5317 15.7598 19.1917 15.7598 18.7817C15.7598 18.3717 16.0998 18.0317 16.5098 18.0317H19.4998C19.9098 18.0317 20.2498 18.3717 20.2498 18.7817C20.2498 19.1917 19.9098 19.5317 19.4998 19.5317Z" fill="#3E7B27"/>
<path d="M18 21.0618C17.59 21.0618 17.25 20.7218 17.25 20.3118V17.3218C17.25 16.9118 17.59 16.5718 18 16.5718C18.41 16.5718 18.75 16.9118 18.75 17.3218V20.3118C18.75 20.7318 18.41 21.0618 18 21.0618Z" fill="#3E7B27"/>
</svg>
