<svg width="49" height="48" viewBox="0 0 49 48" fill="none" xmlns="http://www.w3.org/2000/svg">
<path d="M33 45C34.933 45 36.5 43.433 36.5 41.5C36.5 39.567 34.933 38 33 38C31.067 38 29.5 39.567 29.5 41.5C29.5 43.433 31.067 45 33 45Z" fill="#00C853"/>
<path d="M17 45C18.933 45 20.5 43.433 20.5 41.5C20.5 39.567 18.933 38 17 38C15.067 38 13.5 39.567 13.5 41.5C13.5 43.433 15.067 45 17 45Z" fill="#00C853"/>
<path d="M10.18 7.88L9.78 12.78C9.7 13.72 10.44 14.5 11.38 14.5H42C42.84 14.5 43.54 13.86 43.6 13.02C43.86 9.48 41.16 6.6 37.62 6.6H13.04C12.84 5.72 12.44 4.88 11.82 4.18C10.82 3.12 9.42 2.5 7.98 2.5H4.5C3.68 2.5 3 3.18 3 4C3 4.82 3.68 5.5 4.5 5.5H7.98C8.6 5.5 9.18 5.76 9.6 6.2C10.02 6.66 10.22 7.26 10.18 7.88Z" fill="#00C853"/>
<path d="M41.5201 17.5H10.8401C10.0001 17.5 9.32011 18.14 9.24011 18.96L8.52011 27.66C8.24011 31.08 10.9201 34 14.3401 34H36.5801C39.5801 34 42.2201 31.54 42.4401 28.54L43.1001 19.2C43.1801 18.28 42.4601 17.5 41.5201 17.5Z" fill="#00C853"/>
</svg>
