<svg width="19" height="16" viewBox="0 0 19 16" fill="none" xmlns="http://www.w3.org/2000/svg">
<path d="M13.8655 5.33337C13.8655 4.27251 13.403 3.25509 12.5798 2.50495C11.7565 1.7548 10.64 1.33337 9.47577 1.33337C8.31155 1.33337 7.19502 1.7548 6.37179 2.50495C5.54856 3.25509 5.08608 4.27251 5.08608 5.33337C5.08608 10 2.89124 11.3334 2.89124 11.3334H16.0603C16.0603 11.3334 13.8655 10 13.8655 5.33337Z" fill="white" stroke="white" stroke-width="2" stroke-linecap="round" stroke-linejoin="round"/>
<path d="M12.4022 14C12.1048 14.3042 11.678 14.5566 11.1644 14.7321C10.6508 14.9076 10.0685 15 9.47578 15C8.88308 15 8.30078 14.9076 7.78718 14.7321C7.27358 14.5566 6.84672 14.3042 6.54932 14" stroke="white" stroke-width="1.5" stroke-linecap="round" stroke-linejoin="round"/>
</svg>
