<svg width="24" height="24" viewBox="0 0 24 24" fill="none" xmlns="http://www.w3.org/2000/svg">
<path fill-rule="evenodd" clip-rule="evenodd" d="M18.7678 7.0185L5.82856 19.9577L4.06079 18.19L17 5.25073L17.8839 6.13462L18.7678 7.0185Z" fill="white"/>
<path d="M12 4H20V12L12 4Z" fill="white"/>
<path fill-rule="evenodd" clip-rule="evenodd" d="M7.5 11C9.433 11 11 9.433 11 7.5C11 5.567 9.433 4 7.5 4C5.567 4 4 5.567 4 7.5C4 9.433 5.567 11 7.5 11ZM7.5 5.96875L5.96875 7.5L7.5 9.03125L9.03125 7.50017L7.5 5.96875Z" fill="white"/>
<path fill-rule="evenodd" clip-rule="evenodd" d="M16.5 20C18.433 20 20 18.433 20 16.5C20 14.567 18.433 13 16.5 13C14.567 13 13 14.567 13 16.5C13 18.433 14.567 20 16.5 20ZM16.5 14.9688L14.9688 16.5L16.5 18.0312L18.0312 16.5002L16.5 14.9688Z" fill="#00AF49"/>
</svg>
