<svg width="24" height="26" viewBox="0 0 24 26" fill="none" xmlns="http://www.w3.org/2000/svg">
<path fill-rule="evenodd" clip-rule="evenodd" d="M14.4855 5.12122C12.1795 5.12122 10.237 6.65416 9.6514 8.7418C12.9201 9.03892 15.5222 11.6016 15.8239 14.8208C17.9437 14.2441 19.5002 12.331 19.5002 10.0599C19.5002 7.33236 17.2551 5.12122 14.4855 5.12122ZM14.0294 15.4477C14.0294 12.72 11.7843 10.5089 9.01472 10.5089C6.24516 10.5089 4 12.72 4 15.4477C4 18.1752 6.24516 20.3864 9.01472 20.3864C11.7843 20.3864 14.0294 18.1752 14.0294 15.4477ZM6.7353 15.4477L9.01472 17.6925L11.2941 15.4477L9.01472 13.2028L6.7353 15.4477Z" fill="white"/>
<path d="M10 4.13635H3V11.0303L10 4.13635Z" fill="#00AF49"/>
<path d="M14 21.8636H21V14.9697L14 21.8636Z" fill="#00AF49"/>
</svg>
